<?xml version="1.0" encoding="utf-8"?>
<!-- Generator: Adobe Illustrator 23.0.6, SVG Export Plug-In . SVG Version: 6.00 Build 0)  -->
<svg version="1.1" id="Warstwa_1" xmlns="http://www.w3.org/2000/svg" xmlns:xlink="http://www.w3.org/1999/xlink" x="0px" y="0px"
	 viewBox="0 0 602.7 165.3" style="enable-background:new 0 0 602.7 165.3;" xml:space="preserve">
<style type="text/css">
	.st0{fill:#F03100;}
	.st1{fill:#060936;}
	.st2{fill:#B1B3B6;}
</style>
<g>
	<path class="st0" d="M100.7,76h-39l9.1-64.7h39L100.7,76z M89.7,154.1h-39l9.4-66.9h39L89.7,154.1z M39,141.2H0l10.9-77.4h39
		L39,141.2z M51.5,52.6h-39l4.1-29.4h39L51.5,52.6z M149.8,100.6h-39l10.9-77.4h39L149.8,100.6z M144.1,141.2h-39l4.1-29.4h39
		L144.1,141.2z"/>
	<path class="st1" d="M214,46.9c0-5.4,4.7-9.9,10.3-9.9s10.3,4.5,10.3,9.9s-4.7,9.9-10.3,9.9S214,52.3,214,46.9z M215.7,61.6h17.2
		v54.9h-17.2V61.6z M266.4,77.5v19.4c0,4.7,4.2,5.2,11.8,4.7v14.9c-22.4,2.2-29-4.3-29-19.7V77.5h-9.2V61.6h9.2V51.2l17.2-4.9v15.4
		h11.8v15.8H266.4z M293.8,81.8h30.4v15.8h-30.4V81.8z M386.8,100.1c0,12.6-11.4,18-23.8,18c-11.4,0-20.1-4.2-24.6-13.1l14.9-8.1
		c1.5,4.2,4.7,6.5,9.7,6.5c4.1,0,6.2-1.2,6.2-3.4c0-6-28.2-2.9-28.2-21.9c0-12,10.5-18,22.4-18c9.3,0,17.5,4,22.3,11.8l-14.6,7.6
		c-1.6-2.9-3.9-4.8-7.7-4.8c-3,0-4.8,1.1-4.8,3.1C358.7,83.9,386.8,79.8,386.8,100.1z M390.6,89.1c0-16.4,13.5-29,30.3-29
		s30.3,12.6,30.3,29c0,16.4-13.5,29-30.3,29S390.6,105.5,390.6,89.1z M434.1,89.1c0-7.8-5.7-13-13.2-13s-13.2,5.2-13.2,13
		c0,7.8,5.7,13,13.2,13S434.1,96.9,434.1,89.1z M459.1,36.4h17.2v80.2h-17.2V36.4z M543.6,61.6l-21.2,54.9H503l-21.2-54.9h19
		l11.9,34.8l11.9-34.8H543.6z M575.1,103.4c4.7,0,8.7-1.8,11-4.2l13.7,7.6c-5.6,7.5-14.1,11.3-24.9,11.3c-19.6,0-31.7-12.6-31.7-29
		c0-16.4,12.4-29,30.4-29c16.7,0,29.1,12.4,29.1,29c0,2.3-0.2,4.5-0.7,6.6h-40.6C563.5,101.4,568.8,103.4,575.1,103.4z M585.6,83.4
		c-1.8-6.4-7-8.7-12.1-8.7c-6.5,0-10.9,3.1-12.5,8.7H585.6z"/>
	<path class="st2" d="M236.2,146.1c0,5.4-4,9.6-8.9,9.6c-3.3,0-6-1.8-7.4-4.7v4.2h-1.7v-25.6h1.7v11.6c1.4-2.8,4.1-4.7,7.4-4.7
		C232.2,136.5,236.2,140.7,236.2,146.1z M234.5,146.1c0-4.4-3.2-7.8-7.3-7.8s-7.3,3.4-7.3,7.8s3.2,7.8,7.3,7.8
		S234.5,150.4,234.5,146.1z M252.3,136.9v18.3h-1.7v-3.5c-1.3,2.7-3.5,3.9-6.1,3.9c-4.1,0-6.7-2.9-6.7-7.3v-11.4h1.8v11.4
		c0,3.4,1.8,5.6,5,5.6c3.4,0,6-2.3,6-7.3v-9.7H252.3z M267.2,150.4c0,3-2.5,5.2-6.1,5.2c-3.4,0-5.7-1.7-6.5-4.1l1.5-0.9
		c0.6,2,2.5,3.2,5,3.2c2.4,0,4.4-1.1,4.4-3.4c0-5-10.4-2.1-10.4-8.7c0-2.9,2.3-5.2,5.8-5.2c2.8,0,4.9,1.4,5.8,3.7l-1.4,0.9
		c-0.7-1.9-2.5-2.8-4.4-2.8c-2.2,0-4.1,1.2-4.1,3.4C256.8,146.6,267.2,143.7,267.2,150.4z M269.1,131c0-0.8,0.6-1.4,1.4-1.4
		s1.4,0.7,1.4,1.4c0,0.8-0.6,1.5-1.4,1.5S269.1,131.8,269.1,131z M269.7,136.9h1.7v18.3h-1.7V136.9z M290.5,143.8v11.4h-1.8v-11.4
		c0-3.4-1.8-5.6-5-5.6c-3.4,0-6,2.3-6,7.3v9.7H276v-18.3h1.7v3.5c1.3-2.7,3.5-3.9,6.1-3.9C287.9,136.5,290.5,139.4,290.5,143.8z
		 M309.6,146.2c0,0.3,0,0.6,0,0.9H294c0.4,4.1,3.4,6.8,7.3,6.8c2.8,0,4.9-1.4,5.9-3.3l1.5,1c-1.4,2.5-4.1,4.1-7.5,4.1
		c-5.3,0-9-4-9-9.6c0-5.4,3.6-9.6,8.9-9.6C306.4,136.5,309.6,141.1,309.6,146.2z M294,145.2h13.8c-0.4-4.5-3.3-7-6.7-7
		C297.2,138.3,294.4,141.2,294,145.2z M322.6,150.4c0,3-2.5,5.2-6.1,5.2c-3.4,0-5.7-1.7-6.5-4.1l1.5-0.9c0.6,2,2.5,3.2,5,3.2
		c2.4,0,4.4-1.1,4.4-3.4c0-5-10.4-2.1-10.4-8.7c0-2.9,2.3-5.2,5.8-5.2c2.8,0,4.9,1.4,5.8,3.7l-1.4,0.9c-0.7-1.9-2.5-2.8-4.4-2.8
		c-2.2,0-4.1,1.2-4.1,3.4C312.2,146.6,322.6,143.7,322.6,150.4z M335.8,150.4c0,3-2.5,5.2-6.1,5.2c-3.4,0-5.7-1.7-6.5-4.1l1.5-0.9
		c0.6,2,2.5,3.2,5,3.2c2.4,0,4.4-1.1,4.4-3.4c0-5-10.4-2.1-10.4-8.7c0-2.9,2.3-5.2,5.8-5.2c2.8,0,4.9,1.4,5.8,3.7l-1.4,0.9
		c-0.7-1.9-2.5-2.8-4.4-2.8c-2.2,0-4.1,1.2-4.1,3.4C325.4,146.6,335.8,143.7,335.8,150.4z M364.7,146.1c0,5.4-4,9.6-8.9,9.6
		c-3.3,0-6-1.8-7.4-4.7v11.6h-1.7v-25.6h1.7v4.2c1.4-2.8,4.1-4.7,7.4-4.7C360.7,136.5,364.7,140.7,364.7,146.1z M363,146.1
		c0-4.4-3.2-7.8-7.3-7.8s-7.3,3.4-7.3,7.8s3.2,7.8,7.3,7.8S363,150.4,363,146.1z M383.5,136.9v18.3h-1.8v-4.1
		c-1.4,2.7-4.1,4.5-7.4,4.5c-4.9,0-8.9-4.1-8.9-9.6s4-9.6,8.9-9.6c3.3,0,5.9,1.8,7.4,4.5v-4.1H383.5z M381.7,146.1
		c0-4.4-3.2-7.8-7.2-7.8s-7.3,3.4-7.3,7.8s3.2,7.8,7.3,7.8S381.7,150.4,381.7,146.1z M394,136.7v1.8c-3,0-5.7,1.9-5.7,6.6v10.2h-1.7
		v-18.3h1.7v3.6C389.5,137.6,391.7,136.7,394,136.7z M400.3,138.7v11.9c0,3.2,1.6,3.3,5.1,3v1.6c-4.5,0.7-6.9-0.4-6.9-4.6v-11.9
		h-3.8v-1.8h3.8v-4.6l1.8-0.5v5.1h5.1v1.8H400.3z M422.8,143.8v11.4h-1.8v-11.4c0-3.4-1.8-5.6-5-5.6c-3.4,0-6,2.3-6,7.3v9.7h-1.7
		v-18.3h1.7v3.5c1.3-2.7,3.5-3.9,6.1-3.9C420.2,136.5,422.8,139.4,422.8,143.8z M441.9,146.2c0,0.3,0,0.6,0,0.9h-15.6
		c0.4,4.1,3.4,6.8,7.3,6.8c2.8,0,4.9-1.4,5.9-3.3l1.5,1c-1.4,2.5-4.1,4.1-7.5,4.1c-5.3,0-9-4-9-9.6c0-5.4,3.6-9.6,8.9-9.6
		C438.7,136.5,441.9,141.1,441.9,146.2z M426.3,145.2h13.8c-0.4-4.5-3.3-7-6.7-7C429.5,138.3,426.7,141.2,426.3,145.2z M451.4,136.7
		v1.8c-3,0-5.7,1.9-5.7,6.6v10.2H444v-18.3h1.7v3.6C446.8,137.6,449.1,136.7,451.4,136.7z"/>
</g>
</svg>
